<?xml version="1.0" encoding="UTF-8" standalone="no"?>
<!-- Created with Inkscape (http://www.inkscape.org/) -->

<svg
   xmlns:dc="http://purl.org/dc/elements/1.1/"
   xmlns:cc="http://creativecommons.org/ns#"
   xmlns:rdf="http://www.w3.org/1999/02/22-rdf-syntax-ns#"
   xmlns:svg="http://www.w3.org/2000/svg"
   xmlns="http://www.w3.org/2000/svg"
   xmlns:sodipodi="http://sodipodi.sourceforge.net/DTD/sodipodi-0.dtd"
   xmlns:inkscape="http://www.inkscape.org/namespaces/inkscape"
   width="890"
   height="584"
   viewBox="0 0 890.00001 584.00001"
   id="svg5002"
   version="1.1"
   inkscape:version="0.91 r13725"
   sodipodi:docname="Nitric-oxide-2D.svg">
  <defs
     id="defs5004" />
  <sodipodi:namedview
     id="base"
     pagecolor="#ffffff"
     bordercolor="#666666"
     borderopacity="1.0"
     inkscape:pageopacity="0.0"
     inkscape:pageshadow="2"
     inkscape:zoom="1"
     inkscape:cx="182.36414"
     inkscape:cy="387.4849"
     inkscape:document-units="px"
     inkscape:current-layer="layer1"
     showgrid="false"
     units="px"
     showguides="true"
     inkscape:snap-grids="false"
     inkscape:window-width="1920"
     inkscape:window-height="1017"
     inkscape:window-x="-8"
     inkscape:window-y="-8"
     inkscape:window-maximized="1" />
  <metadata
     id="metadata5007">
    <rdf:RDF>
      <cc:Work
         rdf:about="">
        <dc:format>image/svg+xml</dc:format>
        <dc:type
           rdf:resource="http://purl.org/dc/dcmitype/StillImage" />
        <dc:title />
      </cc:Work>
    </rdf:RDF>
  </metadata>
  <g
     inkscape:label="Layer 1"
     inkscape:groupmode="layer"
     id="layer1"
     transform="translate(0,-468.36216)">
    <g
       id="g3355"
       transform="matrix(1.0495329,0,0,1.0495329,-31.415725,-12.863412)">
      <path
         id="path4948"
         d="m 87.513,699.41143 0,-178.396 24.0416,0 93.02699,140.06329 0,-140.06329 22.47191,0 0,178.396 -24.04293,0 -93.027,-140.18523 0,140.18523 -22.47057,0 z"
         inkscape:connector-curvature="0" />
      <rect
         y="551.06879"
         x="256.79971"
         height="16.983191"
         width="42.88319"
         id="rect7031"
         style="fill:#000000" />
      <rect
         y="551.06879"
         x="339.00693"
         height="16.983191"
         width="42.88319"
         id="rect7031-8"
         style="fill:#000000" />
      <rect
         y="551.06879"
         x="421.21411"
         height="16.983191"
         width="42.88319"
         id="rect7031-2"
         style="fill:#000000" />
      <rect
         y="551.06879"
         x="503.42133"
         height="16.983191"
         width="42.88319"
         id="rect7031-29"
         style="fill:#000000" />
      <rect
         y="551.06879"
         x="585.62854"
         height="16.983191"
         width="42.88319"
         id="rect7031-5"
         style="fill:#000000" />
      <rect
         y="600.85553"
         x="256.79971"
         height="16.920057"
         width="371.59598"
         id="rect7073"
         style="fill:#000000" />
      <rect
         y="658.9021"
         x="256.79971"
         height="16.920057"
         width="371.59598"
         id="rect7073-2"
         style="fill:#000000" />
      <path
         id="path4976"
         d="m 827.41656,609.46582 c 0,60.95507 -37.20686,93.67484 -82.59235,93.67484 -47.23258,0 -79.95366,-36.6791 -79.95366,-90.50972 0,-56.46799 34.83073,-93.40968 82.32848,-93.40968 48.81709,0 80.21753,37.20556 80.21753,90.24456 z m -138.27004,2.63868 c 0,38.26233 20.58179,72.30015 56.99703,72.30015 36.41525,0 56.99704,-33.51138 56.99704,-73.88336 0,-35.62364 -18.47084,-72.56532 -56.73317,-72.56532 -38.26233,0 -57.2609,35.35977 -57.2609,74.14853 z"
         inkscape:connector-curvature="0" />
      <path
         sodipodi:nodetypes="cccccsccccc"
         inkscape:connector-curvature="0"
         id="path7001-6"
         d="M 80.442059,807.955 C 132.49704,794.17089 184.69351,780.93744 236.8924,767.72938 l -15.99867,32.58415 465.3177,-0.41109 c -4.43194,-11.88816 -10.77727,-20.20809 -14.93516,-32.9306 0.29972,-0.22376 154.13178,39.91016 156.13837,40.73563 1.08513,0.4464 -153.30626,40.76062 -156.60848,40.89309 3.29795,-11.58931 10.97711,-19.18022 14.19622,-31.48195 -163.07038,-0.40727 -287.3391,-0.0795 -462.95271,0.10547 4.71121,10.79197 10.52377,21.12812 14.965,32.03601 z"
         style="display:inline;fill:#ff0000" />
      <g
         id="text7126"
         style="font-style:normal;font-weight:normal;font-size:40px;line-height:125%;font-family:sans-serif;letter-spacing:0px;word-spacing:0px;fill:#000000;fill-opacity:1;stroke:none;stroke-width:1px;stroke-linecap:butt;stroke-linejoin:miter;stroke-opacity:1">
        <g
           transform="translate(17.233786,0)"
           id="g7988">
          <path
             d="m 286.08583,931.83231 -10.33355,0 0,-65.84771 q -3.73156,3.55933 -9.81688,7.11867 -6.02791,3.55934 -10.85023,5.33901 l 0,-9.98911 q 8.6687,-4.07601 15.15588,-9.87428 6.48717,-5.79828 9.18538,-11.2521 l 6.6594,0 0,84.50552 z"
             style="font-style:normal;font-variant:normal;font-weight:normal;font-stretch:normal;font-size:180px;font-family:Arial;-inkscape-font-specification:Arial;fill:#ff0000"
             id="path7978"
             inkscape:connector-curvature="0" />
          <path
             d="m 342.80557,931.83231 -10.33355,0 0,-65.84771 q -3.73156,3.55933 -9.81688,7.11867 -6.0279,3.55934 -10.85024,5.33901 l 0,-9.98911 q 8.66871,-4.07601 15.15589,-9.87428 6.48718,-5.79828 9.18538,-11.2521 l 6.6594,0 0,84.50552 z"
             style="font-style:normal;font-variant:normal;font-weight:normal;font-stretch:normal;font-size:180px;font-family:Arial;-inkscape-font-specification:Arial;fill:#ff0000"
             id="path7980"
             inkscape:connector-curvature="0" />
          <path
             d="m 369.32837,909.78739 10.85023,-0.91853 q 1.20558,7.92239 5.56864,11.94099 4.42047,3.9612 10.6206,3.9612 7.46313,0 12.6299,-5.62605 5.16678,-5.62604 5.16678,-14.92624 0,-8.84093 -4.99456,-13.9503 -4.93714,-5.10938 -12.97435,-5.10938 -4.99455,0 -9.01316,2.29635 -4.0186,2.23894 -6.31494,5.85568 l -9.70207,-1.26298 8.15203,-43.22871 41.8509,0 0,9.87429 -33.58405,0 -4.53529,22.619 q 7.57794,-5.28159 15.9022,-5.28159 11.02246,0 18.60039,7.63534 7.57795,7.63535 7.57795,19.63376 0,11.42432 -6.65941,19.74857 -8.09461,10.21874 -22.10232,10.21874 -11.48173,0 -18.77263,-6.42977 -7.23349,-6.42976 -8.26684,-17.05037 z"
             style="font-style:normal;font-variant:normal;font-weight:normal;font-stretch:normal;font-size:180px;font-family:Arial;-inkscape-font-specification:Arial;fill:#ff0000"
             id="path7982"
             inkscape:connector-curvature="0" />
          <path
             d="m 470.25276,955.19764 0,-84.3333 9.41502,0 0,7.92239 q 3.3297,-4.6501 7.52053,-6.94645 4.19083,-2.35375 10.16133,-2.35375 7.80758,0 13.77807,4.0186 5.97051,4.01861 9.01316,11.36691 3.04266,7.2909 3.04266,16.01702 0,9.35761 -3.38711,16.87814 -3.3297,7.46312 -9.75947,11.48172 -6.37236,3.9612 -13.43362,3.9612 -5.16678,0 -9.3002,-2.18153 -4.07601,-2.18152 -6.71681,-5.51123 l 0,29.68028 -10.33356,0 z m 9.35761,-53.50487 q 0,11.76878 4.76492,17.39482 4.76491,5.62606 11.53914,5.62606 6.88903,0 11.76877,-5.79828 4.93714,-5.85568 4.93714,-18.08372 0,-11.65396 -4.82232,-17.45223 -4.76492,-5.79827 -11.42433,-5.79827 -6.60199,0 -11.71136,6.20013 -5.05196,6.14273 -5.05196,17.91149 z"
             style="font-style:normal;font-variant:normal;font-weight:normal;font-stretch:normal;font-size:180px;font-family:Arial;-inkscape-font-specification:Arial;fill:#ff0000"
             id="path7984"
             inkscape:connector-curvature="0" />
          <path
             d="m 535.69862,931.83231 0,-60.96797 9.24279,0 0,8.55388 q 2.87043,-4.47787 7.63534,-7.17608 4.76493,-2.75561 10.85024,-2.75561 6.77422,0 11.07987,2.81302 4.36305,2.81303 6.14272,7.86499 7.23349,-10.67801 18.83004,-10.67801 9.07056,0 13.9503,5.05196 4.87973,4.99455 4.87973,15.44293 l 0,41.85089 -10.27614,0 0,-38.40638 q 0,-6.20013 -1.03336,-8.89834 -0.97594,-2.75561 -3.61674,-4.42046 -2.6408,-1.66485 -6.20014,-1.66485 -6.42977,0 -10.67801,4.30565 -4.24823,4.24823 -4.24823,13.66325 l 0,35.42113 -10.33356,0 0,-39.61196 q 0,-6.88903 -2.52598,-10.33355 -2.52598,-3.44452 -8.26684,-3.44452 -4.36306,0 -8.09462,2.29634 -3.67416,2.29635 -5.33901,6.71681 -1.66485,4.42047 -1.66485,12.74472 l 0,31.63216 -10.33355,0 z"
             style="font-style:normal;font-variant:normal;font-weight:normal;font-stretch:normal;font-size:180px;font-family:Arial;-inkscape-font-specification:Arial;fill:#ff0000"
             id="path7986"
             inkscape:connector-curvature="0" />
        </g>
      </g>
    </g>
  </g>
</svg>
