<?xml version="1.0" encoding="utf-8"?>
<!-- Generator: Adobe Illustrator 15.0.2, SVG Export Plug-In  -->
<!--  Created by User:Zirguezi(http://commons.wikimedia.org/wiki/User:Zirguezi) for use on Wikimedia projects. This image of a simple structural formula is ineligible for copyright and therefore in the public domain, because it consists entirely of information that is common property and contains no original authorship.-->
<!DOCTYPE svg PUBLIC "-//W3C//DTD SVG 1.1//EN" "http://www.w3.org/Graphics/SVG/1.1/DTD/svg11.dtd" [
	<!ENTITY ns_flows "http://ns.adobe.com/Flows/1.0/">
]>
<svg version="1.1"
	 xmlns="http://www.w3.org/2000/svg" xmlns:xlink="http://www.w3.org/1999/xlink" xmlns:a="http://ns.adobe.com/AdobeSVGViewerExtensions/3.0/"
	 x="0px" y="0px" width="1100px" height="587px" viewBox="-40 -40.421 1100 587" enable-background="new -40 -40.421 1100 587"
	 xml:space="preserve">
<defs>
</defs>
<g>
	<rect x="641.5" y="13.079" fill="none" width="380.5" height="101"/>
	<path fill="#FF0000" d="M677.646,78.95h-8.086V27.425c-1.947,1.857-4.5,3.714-7.659,5.57c-3.16,1.857-5.997,3.25-8.513,4.178
		v-7.816c4.521-2.126,8.475-4.701,11.859-7.727c3.384-3.024,5.779-5.959,7.188-8.805h5.211V78.95z"/>
	<path fill="#FF0000" d="M721.983,78.95h-8.086V27.425c-1.947,1.857-4.5,3.714-7.659,5.57c-3.16,1.857-5.997,3.25-8.513,4.178
		v-7.816c4.521-2.126,8.475-4.701,11.859-7.727c3.384-3.024,5.779-5.959,7.188-8.805h5.211V78.95z"/>
	<path fill="#FF0000" d="M743.905,63.722l7.771-0.719c0.658,3.654,1.916,6.305,3.773,7.951c1.856,1.647,4.237,2.471,7.143,2.471
		c2.485,0,4.664-0.568,6.536-1.707c1.871-1.138,3.406-2.657,4.604-4.56c1.197-1.901,2.201-4.47,3.01-7.704s1.213-6.528,1.213-9.883
		c0-0.359-0.016-0.898-0.045-1.617c-1.617,2.576-3.826,4.665-6.626,6.267c-2.801,1.603-5.833,2.403-9.097,2.403
		c-5.451,0-10.063-1.977-13.836-5.93s-5.66-9.164-5.66-15.633c0-6.678,1.969-12.054,5.907-16.127
		c3.938-4.072,8.872-6.109,14.802-6.109c4.282,0,8.198,1.153,11.747,3.459c3.549,2.307,6.244,5.593,8.086,9.86
		s2.763,10.444,2.763,18.53c0,8.416-0.914,15.116-2.74,20.103c-1.827,4.986-4.545,8.782-8.153,11.388
		c-3.609,2.605-7.839,3.908-12.69,3.908c-5.151,0-9.359-1.43-12.623-4.29C746.525,72.924,744.563,68.903,743.905,63.722z
		 M777.013,34.657c0-4.642-1.235-8.325-3.706-11.051c-2.471-2.725-5.443-4.088-8.917-4.088c-3.594,0-6.724,1.468-9.389,4.402
		c-2.666,2.936-3.998,6.738-3.998,11.41c0,4.193,1.265,7.6,3.796,10.22c2.53,2.621,5.652,3.931,9.366,3.931
		c3.743,0,6.82-1.31,9.231-3.931C775.807,42.931,777.013,39.3,777.013,34.657z"/>
	<path fill="#FF0000" d="M798.396,78.95v-9.209h9.209v9.209H798.396z"/>
	<path fill="#FF0000" d="M819.958,21.72v-7.771h42.631v6.289c-4.193,4.463-8.349,10.393-12.466,17.789
		c-4.118,7.397-7.3,15.004-9.546,22.82c-1.617,5.511-2.65,11.545-3.1,18.104h-8.311c0.09-5.181,1.107-11.439,3.055-18.777
		c1.946-7.337,4.739-14.412,8.378-21.226c3.639-6.813,7.509-12.556,11.612-17.228H819.958z"/>
	<path fill="#FF0000" d="M898.392,97.233v-65.99h7.367v6.199c1.736-2.426,3.698-4.245,5.885-5.458
		c2.186-1.213,4.836-1.819,7.951-1.819c4.072,0,7.666,1.049,10.781,3.145c3.114,2.097,5.465,5.054,7.053,8.872
		c1.587,3.818,2.381,8.004,2.381,12.556c0,4.882-0.876,9.276-2.628,13.185s-4.298,6.903-7.637,8.984
		c-3.34,2.081-6.851,3.122-10.534,3.122c-2.695,0-5.114-0.569-7.255-1.707c-2.142-1.138-3.901-2.575-5.278-4.313v23.225H898.392z
		 M905.714,55.366c0,6.14,1.242,10.677,3.729,13.611c2.485,2.936,5.495,4.402,9.029,4.402c3.594,0,6.671-1.52,9.231-4.56
		c2.561-3.039,3.841-7.749,3.841-14.128c0-6.079-1.251-10.631-3.751-13.656c-2.501-3.024-5.488-4.537-8.962-4.537
		c-3.444,0-6.491,1.61-9.142,4.829C907.039,44.548,905.714,49.228,905.714,55.366z"/>
	<path fill="#FF0000" d="M949.558,78.95V31.243h7.232v6.693c1.497-2.336,3.488-4.215,5.975-5.638
		c2.485-1.422,5.315-2.134,8.49-2.134c3.533,0,6.431,0.734,8.692,2.201c2.261,1.468,3.855,3.52,4.784,6.154
		c3.773-5.57,8.685-8.355,14.734-8.355c4.731,0,8.37,1.311,10.916,3.931c2.545,2.621,3.818,6.656,3.818,12.106V78.95h-8.041V48.897
		c0-3.234-0.263-5.563-0.786-6.985c-0.524-1.422-1.476-2.567-2.853-3.437c-1.378-0.868-2.995-1.303-4.852-1.303
		c-3.354,0-6.14,1.116-8.355,3.347c-2.217,2.231-3.324,5.803-3.324,10.714V78.95h-8.086V47.954c0-3.594-0.659-6.289-1.977-8.086
		c-1.318-1.797-3.475-2.695-6.469-2.695c-2.276,0-4.38,0.6-6.312,1.797c-1.932,1.198-3.332,2.95-4.2,5.256
		c-0.869,2.307-1.303,5.631-1.303,9.973V78.95H949.558z"/>
</g>
<g>
	<rect x="346.5" y="434.079" fill="none" width="266.5" height="101"/>
	<path fill="#FF0000" d="M382.275,499.95h-7.91v-50.405c-1.905,1.816-4.402,3.633-7.493,5.449c-3.091,1.816-5.867,3.179-8.328,4.087
		v-7.646c4.423-2.08,8.291-4.6,11.602-7.559c3.311-2.959,5.654-5.83,7.031-8.613h5.098V499.95z"/>
	<path fill="#FF0000" d="M402.578,482.943l7.91-1.055c0.908,4.482,2.454,7.712,4.636,9.69c2.182,1.977,4.841,2.966,7.976,2.966
		c3.72,0,6.862-1.289,9.426-3.867c2.563-2.578,3.845-5.771,3.845-9.58c0-3.633-1.187-6.628-3.56-8.987
		c-2.373-2.357-5.391-3.537-9.053-3.537c-1.494,0-3.355,0.293-5.581,0.879l0.879-6.943c0.527,0.059,0.952,0.088,1.274,0.088
		c3.369,0,6.401-0.879,9.097-2.637c2.695-1.758,4.043-4.468,4.043-8.13c0-2.9-0.982-5.303-2.944-7.207
		c-1.963-1.904-4.498-2.856-7.603-2.856c-3.076,0-5.64,0.967-7.69,2.9c-2.051,1.934-3.369,4.834-3.955,8.701l-7.91-1.406
		c0.967-5.303,3.164-9.411,6.592-12.326s7.69-4.373,12.788-4.373c3.516,0,6.752,0.755,9.712,2.264
		c2.959,1.509,5.222,3.566,6.79,6.174c1.567,2.607,2.351,5.376,2.351,8.306c0,2.783-0.747,5.317-2.241,7.603
		s-3.707,4.102-6.636,5.449c3.808,0.879,6.768,2.703,8.877,5.471c2.109,2.77,3.164,6.233,3.164,10.394
		c0,5.625-2.051,10.394-6.152,14.304c-4.102,3.912-9.288,5.867-15.557,5.867c-5.654,0-10.349-1.685-14.084-5.054
		S403.105,488.305,402.578,482.943z"/>
	<path fill="#FF0000" d="M477.944,499.95v-15.425h-27.949v-7.251l29.399-41.748h6.46v41.748h8.701v7.251h-8.701v15.425H477.944z
		 M477.944,477.274v-29.048l-20.171,29.048H477.944z"/>
	<path fill="#FF0000" d="M507.08,499.95v-9.009h9.008v9.009H507.08z"/>
	<path fill="#FF0000" d="M527.689,482.943l7.91-1.055c0.908,4.482,2.453,7.712,4.637,9.69c2.182,1.977,4.841,2.966,7.976,2.966
		c3.721,0,6.862-1.289,9.427-3.867c2.563-2.578,3.845-5.771,3.845-9.58c0-3.633-1.187-6.628-3.56-8.987
		c-2.373-2.357-5.391-3.537-9.053-3.537c-1.494,0-3.354,0.293-5.581,0.879l0.879-6.943c0.527,0.059,0.952,0.088,1.274,0.088
		c3.369,0,6.401-0.879,9.097-2.637s4.043-4.468,4.043-8.13c0-2.9-0.981-5.303-2.944-7.207s-4.497-2.856-7.603-2.856
		c-3.076,0-5.64,0.967-7.69,2.9s-3.369,4.834-3.955,8.701l-7.91-1.406c0.967-5.303,3.164-9.411,6.592-12.326
		s7.69-4.373,12.788-4.373c3.516,0,6.753,0.755,9.712,2.264s5.222,3.566,6.789,6.174s2.352,5.376,2.352,8.306
		c0,2.783-0.747,5.317-2.241,7.603s-3.706,4.102-6.636,5.449c3.809,0.879,6.768,2.703,8.877,5.471
		c2.109,2.77,3.164,6.233,3.164,10.394c0,5.625-2.051,10.394-6.152,14.304c-4.102,3.912-9.287,5.867-15.557,5.867
		c-5.654,0-10.35-1.685-14.084-5.054C530.348,492.67,528.217,488.305,527.689,482.943z"/>
	<path fill="#FF0000" d="M579.714,445.415c0-3.443,1.22-6.379,3.661-8.805c2.44-2.426,5.368-3.639,8.782-3.639
		c3.474,0,6.424,1.213,8.85,3.639s3.639,5.361,3.639,8.805c0,3.444-1.221,6.387-3.661,8.827c-2.441,2.441-5.384,3.661-8.827,3.661
		c-3.414,0-6.342-1.213-8.782-3.639C580.934,451.839,579.714,448.89,579.714,445.415z M584.61,445.415
		c0,2.097,0.741,3.886,2.224,5.368s3.271,2.224,5.368,2.224c2.066,0,3.841-0.741,5.323-2.224s2.224-3.271,2.224-5.368
		c0-2.096-0.741-3.886-2.224-5.368s-3.257-2.224-5.323-2.224c-2.097,0-3.886,0.741-5.368,2.224S584.61,443.319,584.61,445.415z"/>
</g>
<g>
	<rect x="402" y="135.246" fill="none" width="141" height="158.666"/>
	<path d="M419.506,268.42V135.277h18.073l69.932,104.534V135.277h16.893V268.42h-18.074l-69.932-104.625V268.42H419.506z"/>
</g>
<path fill="none" stroke="#FF0000" stroke-width="15" stroke-miterlimit="10" d="M634.399,293.177
	c-31.407,59.732-93.584,100.404-165.155,100.404c-72.25,0-134.926-41.446-166.041-102.107"/>
<g>
	<g>
		
			<line fill="none" stroke="#FF0000" stroke-width="15" stroke-miterlimit="10" x1="518.867" y1="83.564" x2="935.127" y2="252.805"/>
		<g>
			<polygon fill="#FF0000" points="515.309,119.047 473.068,64.74 541.223,55.309 			"/>
		</g>
		<g>
			<polygon fill="#FF0000" points="912.917,280.704 981.068,271.279 938.831,216.966 			"/>
		</g>
	</g>
</g>
<g>
	<rect x="802" y="291.579" fill="none" width="184" height="196"/>
	<path d="M934.357,365.874c0,46.894-28.623,72.066-63.539,72.066c-36.338,0-61.51-28.218-61.51-69.631
		c0-43.442,26.796-71.862,63.336-71.862C910.201,296.447,934.357,325.07,934.357,365.874z M827.984,367.904
		c0,29.436,15.834,55.622,43.849,55.622s43.849-25.781,43.849-56.84c0-27.406-14.21-55.826-43.646-55.826
		S827.984,338.063,827.984,367.904z"/>
</g>
<g>
	<rect y="291.579" fill="none" width="184" height="196"/>
	<path d="M132.358,365.874c0,46.894-28.624,72.066-63.54,72.066c-36.337,0-61.51-28.218-61.51-69.631
		c0-43.442,26.796-71.862,63.337-71.862C108.201,296.447,132.358,325.07,132.358,365.874z M25.984,367.904
		c0,29.436,15.834,55.622,43.849,55.622s43.849-25.781,43.849-56.84c0-27.406-14.21-55.826-43.646-55.826
		S25.984,338.063,25.984,367.904z"/>
</g>
<line fill="none" stroke="#000000" stroke-width="12" stroke-miterlimit="10" x1="139.75" y1="314.579" x2="360.5" y2="223.329"/>
<line fill="none" stroke="#000000" stroke-width="12" stroke-miterlimit="10" stroke-dasharray="50,40" x1="157.75" y1="356.829" x2="186.5" y2="344.079"/>
<line fill="none" stroke="#000000" stroke-width="12" stroke-miterlimit="10" stroke-dasharray="50,40" x1="221.75" y1="329.829" x2="250.5" y2="317.079"/>
<line fill="none" stroke="#000000" stroke-width="12" stroke-miterlimit="10" stroke-dasharray="50,40" x1="283.75" y1="303.829" x2="312.5" y2="291.079"/>
<line fill="none" stroke="#000000" stroke-width="12" stroke-miterlimit="10" stroke-dasharray="50,40" x1="348.75" y1="277.829" x2="377.5" y2="265.079"/>
<line fill="none" stroke="#000000" stroke-width="12" stroke-miterlimit="10" x1="563.5" y1="264.246" x2="592.167" y2="276.412"/>
<line fill="none" stroke="#000000" stroke-width="12" stroke-miterlimit="10" x1="627.5" y1="290.246" x2="656.167" y2="302.412"/>
<line fill="none" stroke="#000000" stroke-width="12" stroke-miterlimit="10" x1="690.5" y1="317.246" x2="719.167" y2="329.412"/>
<line fill="none" stroke="#000000" stroke-width="12" stroke-miterlimit="10" x1="753.5" y1="343.246" x2="782.167" y2="355.412"/>
<line fill="none" stroke="#000000" stroke-width="12" stroke-miterlimit="10" x1="800.5" y1="314.579" x2="579.75" y2="223.329"/>
</svg>
